<svg xmlns="http://www.w3.org/2000/svg" viewBox="0 0 160 64" role="img"><title>LB plus RB</title><g transform="translate(8 0)"><rect xmlns="http://www.w3.org/2000/svg" x="4" y="11" width="56" height="43" rx="13" fill="#F5EBD6" stroke="#26323A" stroke-width="3" /><path xmlns="http://www.w3.org/2000/svg" d="M7 43h50" stroke="#26323A" stroke-width="3" stroke-linecap="round" /><path xmlns="http://www.w3.org/2000/svg" d="M18 20v18h12v-4h-7V20Zm16 0v18h9q7 0 7-5 0-3-3-4 2-1 2-4 0-5-7-5Zm5 4h3q2 0 2 2 0 1-2 1h-3Zm0 7h3q3 0 3 2 0 2-3 2h-3Z" fill="#26323A" /></g><path d="M76 32h8m-4-4v8" fill="none" stroke="#F5EBD6" stroke-width="6" stroke-linecap="round"/><path d="M76 32h8m-4-4v8" fill="none" stroke="#26323A" stroke-width="3" stroke-linecap="round"/><g transform="translate(88 0)"><rect xmlns="http://www.w3.org/2000/svg" x="4" y="11" width="56" height="43" rx="13" fill="#F5EBD6" stroke="#26323A" stroke-width="3" /><path xmlns="http://www.w3.org/2000/svg" d="M7 43h50" fill="none" stroke="#26323A" stroke-width="3" stroke-linecap="round" /><path xmlns="http://www.w3.org/2000/svg" d="M14 20v18h5v-7h2.5l5 7h5.5l-5.6-7.7q4.6-1.3 4.6-5.3 0-5-7-5Zm5 4h3q3 0 3 2.5 0 2.5-3 2.5h-3ZM35 20v18h9q7 0 7-5 0-3-3-4 2-1 2-4 0-5-7-5Zm5 4h3q2 0 2 2 0 1-2 1h-3Zm0 7h3q3 0 3 2 0 2-3 2h-3Z" fill="#26323A" /></g></svg>
