<svg xmlns="http://www.w3.org/2000/svg" width="128" height="128" viewBox="0 0 128 128"><polygon points="64.000,36.580 86.761,44.272 93.099,60.268 96.124,77.489 75.565,87.108 53.795,84.391 37.886,74.965 31.499,59.832 45.650,48.095" fill="none" stroke="#56627c" stroke-opacity=".18" stroke-width="11" stroke-linejoin="round"/><polygon points="64.000,36.580 86.761,44.272 93.099,60.268 96.124,77.489 75.565,87.108 53.795,84.391 37.886,74.965 31.499,59.832 45.650,48.095" fill="#f7f9ff" stroke="#56627c" stroke-opacity=".78" stroke-width="6" stroke-linejoin="round"/><defs><clipPath id="facet9"><polygon points="64.000,36.580 86.761,44.272 93.099,60.268 96.124,77.489 75.565,87.108 53.795,84.391 37.886,74.965 31.499,59.832 45.650,48.095"/></clipPath></defs><g clip-path="url(#facet9)"><polygon points="34,91 64,62 97,72 105,103 34,111" fill="#cbd4eb"/><polygon points="37,80 62,63 54,29 37,27" fill="#e5ebf8"/></g><polygon points="64.000,36.580 86.761,44.272 93.099,60.268 96.124,77.489 75.565,87.108 53.795,84.391 37.886,74.965 31.499,59.832 45.650,48.095" fill="none" stroke="#56627c" stroke-opacity=".78" stroke-width="6" stroke-linejoin="round"/></svg>